<svg xmlns="http://www.w3.org/2000/svg" id="Logo" viewBox="0 0 1024 1024">
  <defs/>
  <defs/>
  <g id="Morein4">
    <path id="Eye" d="M337.84 432.91q-12.4 12.39-12.15 28t12.18 27.53q11.89 11.9 27.5 12.14t28-12.14q12.39-12.39 12.14-28t-12.14-27.5q-11.95-11.94-27.54-12.18t-27.99 12.15z" class="cls-1"/>
    <path id="Body" d="M1003 974C867.06 837.9 732.39 704.41 595.86 567.81a16.08 16.08 0 010-22.7l210.9-210.9c-3.92-5.73-9.69-9.32-17.19-6.91-18.63 6-35.73 17.11-54.28 21.72-18.74 4.66-35.61 14.07-51.21 25.45-11.57 8.44-23.29 3.37-23.12-9.22.05-3.54.69-7 1.11-10.91-2.35.46-4.12 1-5.93 1.15-9.64 1-19.29 2.65-28.94 2.68-9.43 0-17.11-4-20.57-13.86a67.93 67.93 0 00-6.63-14.62 110.43 110.43 0 00-11.94-14.47c-3-3.26-5.59-2.4-8.91.95a42168.62 42168.62 0 01-105.59 105.61 16 16 0 01-22.61 0l-204-204c-10.1-10.11-3-27.38 11.31-27.36 127.42.18 527.51.73 562.34.76 3.25 0 4.52-1 6.21-4a80 80 0 0111.45-15.52c7.87-7.87 26.71-19.26 43.56-26.43 33.07-14.07 63.25-25.37 90.8-49.18 22.1-19.11 37.77-40.58 35.55-71.48-.33-4.66-1.85-7.9-7.12-7.9-23.19 0-740.93-.1-916.66 0C70.12 16.6 63 33.85 73.12 43.94c29.54 29.48 73.15 73 78.46 78.42 3.75 3.85 2.77 8.66-.93 12.36L45.41 240a16 16 0 000 22.61l282.4 282.34a16 16 0 010 22.63L10.31 885s7.75 6.64 13.58 7c6.6.42 13.32-1.79 19.51-4.06 10.67-3.9 20.8-9.28 31.47-13.2 10.3-3.78 20.82-7.41 31.56-9.39 8.51-1.56 14.67 4 16.74 12.54 1 4.32 1.47 8.78 2.15 13 6.48-.63 12.64-1.38 18.82-1.79 10.87-.71 21.21 6.12 24 16.66 1.63 6.22 1.79 12.79 3.28 19 1.38 5.8 2.82 11.79 5.54 17 4.34 8.34 12 10.17 18.48 3.69L450 690.94a16 16 0 0122.59-.07l291.12 290c.63.64 2.08.23 2.86-.21 2.48-1.38 8.14-4.29 12.93-4.93 6.33-.84 14.48.39 22.91 1.88 21.1 3.7 42 8.56 63 12.92 26.87 5.59 53.56 12.57 81.41 10.84 21.88-1.37 42.3-8.9 56.18-27.37zM178.71 360.22l-32.63-32.63 3-3 1.8 1.8a16.11 16.11 0 0022.8 0l57.7-57.7q6.6-6.6 5.82-10.62l3.84 3.84q4.38 5.22-4.62 14.21l-56.51 56.51a16.12 16.12 0 000 22.79l1.8 1.8zm178.16 11.4l-1.8-1.8a16.12 16.12 0 00-22.79 0l-57.59 57.59a16.12 16.12 0 000 22.79l1.8 1.8-3 3-47.63-47.63 3-3 1.8 1.8a16.11 16.11 0 0022.8 0l60-60-100.55 48.24-15.24-15.23L244 274.44q5-10.72-2-17.75l-12.48-12.48 3-3 31.07 31.08Q274.21 283 268 296.7l-38.27 80.74 78.94-38.87q14.57-6.54 24.59 3.48l26.58 26.57zm5.79 150.11q-24.87.81-41.9-16.22t-16.23-41.9q.81-24.87 20-44t44-20q24.83-.78 41.87 16.26t16.25 41.87q-.78 24.83-20 44t-43.99 19.99zm192.34 42l80.32 80.32-27.06 27-2.87-2.88 2.45-2.46q6.78-6.76 8.28-17.87t-7.74-20.34l-20.51-20.51q1.62-2.82-2.58-7L552 566.75zm-90 82.78l-17.81-17.82q-10-10-11.88-19.43a41.47 41.47 0 011.26-20L446 556a5.79 5.79 0 00-1.5-5l-1.26-1.26-23.1 23.1a16.12 16.12 0 000 22.79l1.8 1.8-3 3-47.62-47.63 3-3 1.8 1.8a16.11 16.11 0 0022.8 0l57.7-57.7q6.6-6.6 5.82-10.62l18.24 18.24q5.26 5.52-2.82 13.61l-28.55 28.56 3.29 3.3c3.72 3.71 8.67 5 14.85 3.8s11.88-4.38 17.13-9.62 8.41-10.92 9.53-17-.06-10.92-3.54-14.4c1.08-1.87.22-4.22-2.57-7l-33.3-33.29 3-3 43.49 43.48q13.32 13.3 14.01 28.04t-9.2 24.61q-10.5 10.5-24.29 8.94a37.1 37.1 0 01-14.46-5 33.22 33.22 0 013.54 7.92 20 20 0 01.48 8.46l-10.2 37.19q-2 14.39 3.36 19.79l3.6 3.6zm83.92 83.92l-80.32-80.32 3-3 1.8 1.8a16.12 16.12 0 0022.79 0l57.71-57.71c4.4-4.39 6.33-7.94 5.82-10.61L578 598.84q5.28 5.52-2.82 13.62L549 638.61l30.17 30.17-3 3-1.8-1.8q-10.2-10.2-15.59-7.19l-17-17-31.13 31.13q-2.4 2.4 1.14 5.94l20.63 20.64a26.83 26.83 0 0021 8q13.92-1.2 22.09-7.23l2.94-2 2.88 2.87zm140.6-26.16l-1.8-1.79a16.1 16.1 0 00-22.79 0l-57.59 57.58a16.12 16.12 0 000 22.79l1.8 1.8-3 3-47.63-47.62 3-3 1.8 1.8a16.12 16.12 0 0022.79 0l57.59-57.59a16.12 16.12 0 000-22.79l-1.8-1.8 3-3 47.62 47.63zM646 827.5l-32.63-32.63 3-3 1.8 1.8a16.11 16.11 0 0022.8 0l57.7-57.7q6.6-6.6 5.82-10.62l3.24 3.24q5 5.82-4 14.81l-56.51 56.51a16.12 16.12 0 000 22.79l1.8 1.8zm152.37-14.39l-1.8-1.8a16.11 16.11 0 00-22.8 0l-72 72L683.49 865l29.21-121.84q3-12.64-4-19.67l-12-12 3-3 31.67 31.68q11.28 11.26 7.44 26.63l-21.59 88.54 50.26-50.27a16.11 16.11 0 000-22.8l-1.8-1.79 3-3 32.64 32.63z" class="cls-1"/>
  </g>
</svg>
